<svg height="480pt" viewBox="0 -48 480 480" width="480pt" xmlns="http://www.w3.org/2000/svg" xmlns:xlink="http://www.w3.org/1999/xlink"><linearGradient id="a"><stop offset="0" stop-color="#fff200"/><stop offset="1" stop-color="#cd118c"/></linearGradient><linearGradient id="b" gradientUnits="userSpaceOnUse" x1="-79.456" x2="456.544" xlink:href="#a" y1="586.368119" y2="-21.631881"/><linearGradient id="c" gradientUnits="userSpaceOnUse" x1="-91.368" x2="444.632" xlink:href="#a" y1="575.880119" y2="-32.119881"/><linearGradient id="d" gradientUnits="userSpaceOnUse" x1="-121.264" x2="414.736" xlink:href="#a" y1="549.520119" y2="-58.479881"/><linearGradient id="e" gradientUnits="userSpaceOnUse" x1="-203.904" x2="332.096" xlink:href="#a" y1="476.664119" y2="-131.335881"/><linearGradient id="f" gradientUnits="userSpaceOnUse" x1="-185.896" x2="350.104" xlink:href="#a" y1="492.536119" y2="-115.463881"/><path d="m440 64v-16c0-4.417969-3.582031-8-8-8h-48c-4.417969 0-8 3.582031-8 8v16h-27.054688l-29.746093-59.574219c-1.359375-2.726562-4.152344-4.441406-7.199219-4.425781h-144c-3.03125 0-5.804688 1.710938-7.160156 4.425781l-29.785156 59.574219h-27.054688v-16c0-4.417969-3.582031-8-8-8h-48c-4.417969 0-8 3.582031-8 8v16c-22.082031.027344-39.9726562 17.917969-40 40v240c.0273438 22.082031 17.917969 39.972656 40 40h400c22.082031-.027344 39.972656-17.917969 40-40v-240c-.027344-22.082031-17.917969-39.972656-40-40zm-48-8h32v8h-32zm-256 24c3.03125 0 5.804688-1.710938 7.160156-4.425781l29.785156-59.574219h134.109376l29.785156 59.574219c1.355468 2.714843 4.128906 4.425781 7.160156 4.425781h96c13.253906 0 24 10.746094 24 24v216h-360.207031c5.292969-6.882812 8.175781-15.316406 8.207031-24v-192c-.019531-2.488281-.269531-4.972656-.753906-7.414062-.140625-.800782-.375-1.488282-.558594-2.242188-.394531-1.628906-.890625-3.230469-1.488281-4.800781-.3125-.800781-.648438-1.597657-1.007813-2.335938-.683594-1.453125-1.453125-2.863281-2.304687-4.222656-.414063-.679687-.796875-1.359375-1.269531-2.007813-.226563-.320312-.394532-.679687-.632813-.992187zm-80-24h32v8h-32zm-40 48c0-13.253906 10.746094-24 24-24h32c13.253906 0 24 10.746094 24 24v192c0 13.253906-10.746094 24-24 24h-56zm424 264h-400c-13.253906 0-24-10.746094-24-24v-8h448v8c0 13.253906-10.746094 24-24 24zm0 0" fill="url(#b)"/><path d="m240 288c48.601562 0 88-39.398438 88-88s-39.398438-88-88-88-88 39.398438-88 88c.058594 48.578125 39.421875 87.941406 88 88zm0-160c39.765625 0 72 32.234375 72 72s-32.234375 72-72 72-72-32.234375-72-72c.042969-39.746094 32.253906-71.957031 72-72zm0 0" fill="url(#c)"/><path d="m200 200c.027344-22.082031 17.917969-39.972656 40-40 4.417969 0 8-3.582031 8-8s-3.582031-8-8-8c-30.914062.035156-55.964844 25.085938-56 56 0 4.417969 3.582031 8 8 8s8-3.582031 8-8zm0 0" fill="url(#d)"/><path d="m40 104c-4.417969 0-8 3.582031-8 8v176c0 4.417969 3.582031 8 8 8s8-3.582031 8-8v-176c0-4.417969-3.582031-8-8-8zm0 0" fill="url(#e)"/><path d="m80 288v-176c0-4.417969-3.582031-8-8-8s-8 3.582031-8 8v176c0 4.417969 3.582031 8 8 8s8-3.582031 8-8zm0 0" fill="url(#f)"/></svg>